<?xml version="1.0" encoding="UTF-8"?>
<svg id="Calque_2" data-name="Calque 2" xmlns="http://www.w3.org/2000/svg" viewBox="0 0 1508.9 1227.08">
  <g id="Calque_1-2" data-name="Calque 1">
    <g>
      <path d="M1239.85,861.44c-5.71-2.25-12.36-.12-15.35,5.24-8.27,14.84-21.1,26.51-36.94,33.4-26.36,11.46-56.67,7.81-80.73-11.12-3.24-2.55-6.22-5.43-8.88-8.57-17.36-20.5-23.14-46.25-17.2-70.31,1.44-5.85-1.47-11.88-7.08-14.08l-8.66-3.41c-6.28-2.47-13.47,.98-15.23,7.5-6.48,24.04-4.65,49.39,5.43,72.56,5.83,13.4,14.08,25.27,24.25,35.16,6.08,5.91,6.76,15.44,2.08,22.51-13.67,20.66-42.2,40.49-82.74,56.86-63.95,25.82-149.33,40.04-240.41,40.04s-176.45-14.22-240.41-40.04c-40.77-16.46-69.4-36.43-82.98-57.21-5.57-8.52-5.25-19.76,.46-28.18,9.11-13.43,15.18-28.83,17.68-45.35,4.16-27.51-2.03-55-17.44-77.96-1.52-2.26-4.68-2.74-6.87-1.12l-15.76,11.62c-3.45,2.54-4.4,7.29-2.19,10.96,20.36,34.01,11.9,78.72-20.65,102.72-33.33,24.57-79.93,18.61-106.1-12.79-1.67-2.01-4.56-2.46-6.66-.91l-18.36,13.54c-2.19,1.62-2.68,4.78-.96,6.9,17.37,21.51,41.81,35.55,69.32,39.7,5.59,.85,11.18,1.26,16.74,1.26,15.47,0,30.64-3.26,44.69-9.55,6.52-2.92,14.27-.44,18.11,5.59,17.29,27.2,50.94,51.55,98.83,70.89,67.73,27.34,157.42,42.4,252.57,42.4s184.84-15.06,252.57-42.4c50.03-20.2,84.51-45.87,101.05-74.55,3.55-6.16,10.97-8.69,17.87-6.97,8.8,2.2,17.67,3.27,26.46,3.27,36.65,0,71.68-18.37,92.27-49.54,6.63-10.04,2.43-23.64-8.76-28.05h0Z"/>
      <path d="M758.77,894.97c-25.27,0-49.4-9.45-67.85-26.27-13.33,14.26-32.55,21.56-52.66,19.42-29.03-3.09-52.42-26.39-55.62-55.4-1.97-17.86,3.73-35.72,15.63-49.02,11.91-13.3,28.98-20.93,46.83-20.93,10.48,0,20.57,2.54,29.64,7.4,4.37,2.34,5.61,8.05,2.65,12.03l-8.65,11.64c-2.26,3.04-6.35,4.1-9.78,2.48-4.29-2.03-8.99-3.09-13.86-3.09-9.2,0-18.01,3.94-24.15,10.8-6.23,6.95-9.09,15.96-8.05,25.36,1.65,14.9,13.67,26.88,28.58,28.46,12.66,1.36,24.65-4.51,31.26-15.29,3.36-5.48,9.21-9.05,15.63-9.57,6.46-.51,12.83,2.11,17.05,7.02,13.38,15.58,32.82,24.52,53.34,24.52,18.69,0,36.28-7.25,49.53-20.4,4.09-4.07,9.75-6.21,15.48-5.88,5.72,.33,11.06,3.09,14.64,7.58,6.44,8.07,16.18,12.57,26.56,12.19,8.69-.31,16.97-4.19,22.82-10.63,5.88-6.48,8.84-14.87,8.33-23.69-.92-16.08-13.71-29.13-29.75-30.37-3.34-.26-6.67-.01-9.88,.72-3.96,.9-8.03-.96-9.76-4.63l-5.13-10.87c-2.63-5.57,.42-12.22,6.38-13.75,6.72-1.73,13.73-2.36,20.74-1.82,31.16,2.41,56.01,27.77,57.8,58.99,1,17.5-5.05,34.12-17.05,46.83-11.83,12.52-28.49,19.71-45.71,19.71-15.59,0-30.32-5.67-41.73-15.83-17.86,14.47-39.97,22.33-63.28,22.33Z"/>
      <path d="M1302.68,297.41c-18.77-17.07-36.65-30.46-54.66-40.94-39.72-23.11-82.12-37.42-133.57-51.8-64.99-18.17-135.1-31.85-214.35-41.84-2.56-.32-3.68-.72-4.11-.92-.08-.42-.17-1.42,.06-3.44,1.07-9.32,1.43-19.51,1.07-30.29-1.06-32.25-13.54-62.72-35.15-85.8-21.56-23.02-51.35-37.79-83.9-41.56-30.31-3.52-61.29,4.38-87.26,22.25-26.05,17.92-44.78,44.34-52.74,74.4-3.45,13.04-4.41,26.6-5.34,39.71-.21,2.91-.41,5.82-.65,8.72-.08,1-.19,1.64-.28,2.04-.42,.08-1.11,.17-2.2,.22-7.38,.33-14.75,.65-22.13,.96-32.86,1.4-66.84,2.86-100.23,5.68-88.55,7.47-154.83,20.09-214.9,40.92-23.55,8.16-53.85,20.37-79.33,42.52-19.8,17.2-29.91,38.13-30.06,62.21-.03,4.32-.19,9.08-.53,15-.17,3.01,.84,5.91,2.85,8.15,2.01,2.24,4.77,3.57,7.77,3.73l1119.86,60.19c.21,.01,.42,.02,.63,.02,2.83,0,5.53-1.03,7.66-2.95,2.28-2.06,3.62-4.88,3.78-7.95,.3-5.98,.63-10.57,1.05-14.88,2.56-25.87-5.52-48.12-23.35-64.34ZM681.43,144.88c-.36-39,12.15-65.08,39.38-82.07,30.16-18.82,60.68-18.4,90.7,1.24,27.95,18.29,40.66,49.62,35.78,88.21-.2,1.6-1.61,2.79-3.17,2.71l-161.44-8.68c-.69-.04-1.24-.66-1.25-1.41Zm-440.19,124.69h0s4.27,6.3,4.27,6.3l.1-.06c17.26-11.24,34.24-21.92,52.25-29.05,60.81-24.09,126.34-33.63,182.42-39.79,150.14-16.47,300.82-13.35,447.88,9.29,88.42,13.61,182.12,31.51,268.34,69.94,19.85,8.85,38.75,21.53,57.04,33.8,2.46,1.65,4.91,3.3,7.37,4.94l.24,.16c4.59,3.11,3.46,7.78,3.01,9.13-.99,2.93-3.67,5.97-8.31,5.72l-1007.23-54.13c-2.98-.16-4.62-2.3-5.15-4.24-.3-1.1-.71-3.85,2.02-5.68l-4.23-6.33h0Z"/>
      <path d="M1507.43,528.16c-2.38-27.45-14.5-52.31-34.15-69.98-19.46-17.51-45.41-27.22-73.08-27.36-13.45-.07-27.11-.06-40.32-.04-9.66,0-19.32,.02-28.97,0-1.92,0-14.52-.18-25.64-.33l-18.77-.25c-1.24-.02-2.39-.02-3.5,.2-256.59-14.79-346.1-21.59-547.59-19.79-147.89,1.35-204-4-510.53,15.72l-.96,.1c-16.79,1.67-44.52,4.33-47.45,4.37-7.41,0-14.8-.02-22.21-.05-16.16-.05-32.87-.11-49.34,.13-52.34,.76-96.59,39.73-102.93,90.63-2.33,18.69-2.07,37.76-1.83,56.2,.05,3.57,.1,7.14,.12,10.7,.24,28.85,11.31,55.67,31.19,75.51,19.85,19.82,46.67,30.87,75.52,31.13,14.73,.13,29.69,.1,44.16,.07,8.75-.02,17.5-.04,26.25-.02,1.49,0,3,.06,4.6,.13v6.89c0,25.48-.02,50.96-.04,76.44-.04,55.48-.09,112.85,.08,169.28,.22,74.83,29.21,144.95,81.64,197.44,52.46,52.52,122.5,81.51,197.24,81.62,77.29,.12,156.54,.18,238.61,.18,110.26,0,225.6-.11,348.08-.32,18.02-.03,35.87-1.77,53.04-5.16,32.54-6.43,63.2-18.2,91.14-34.98,27.24-16.36,51.25-37.08,71.38-61.59,20.11-24.5,35.78-52.1,46.56-82.04,11.05-30.68,16.69-63.07,16.76-96.28,.12-56.47,.09-113.89,.06-169.42-.01-25.07-.02-50.15-.02-75.22v-7.03c6.59,.01,13.11,.04,19.57,.06,19.85,.08,38.6,.15,57.68-.15,52.91-.85,97.14-40.35,102.89-91.88,2.72-24.34,2.98-49.55,.79-74.93ZM181.17,641.76c0,1.73-1.38,3.1-3.14,3.12-6.08,.07-12.23,.19-18.17,.31-22.01,.43-42.79,.84-63.71-.92-25.27-2.12-45.67-25.98-46.45-54.3-.49-17.74-.49-35.8,0-53.67,.83-30.87,25.51-55.45,56.17-55.97,9.55-.16,19.19-.21,28.79-.21s18.77,.05,27.98,.1c4.79,.03,9.59,.05,14.38,.07,2.29,0,4.14,1.87,4.14,4.16v157.31Zm1095.84,305.75c-.24,128.87-101.62,229.92-230.82,230.05-184.69,.19-375.49,.19-583.3,0-129.64-.11-231.3-101.85-231.43-231.6-.12-118.23-.09-238.44-.07-354.69,0-33.65,.01-67.3,.01-100.95,0-4.98,4.19-8.92,9.16-8.62,158.44,9.49,320.04,12.64,478.71,13.28,11.5,.05,23.01,.1,34.53,.07,154.79-.42,340.6-2.3,504.89-10.77,10.02-.52,18.42,7.45,18.42,17.48,0,25.02,.01,50.03,.03,75.05,.05,121.5,.11,247.13-.12,370.69Zm181.75-357.23c-.95,28.88-22.9,52.55-51.06,55.05-4.51,.4-9.09,.39-13.94,.39h-2.69c-17.32,.03-34.64,.02-52.51,.02h-5.13c-3.49,0-6.33-2.84-6.33-6.33v-158.57c0-.35,.31-.64,.67-.64,6.33,0,12.58,0,18.8,0,5.46,0,10.89,0,16.32,0,3.93,0,7.92-.01,11.87-.03,8.84-.03,17.98-.07,26.93,.1,31.26,.57,56.36,25.94,57.14,57.76,.47,19.12,.44,36.21-.08,52.25Z"/>
      <g>
        <path d="M516.12,725.21c-88.57,0-161.38-68.81-167.76-155.79-.49-6.72,4.85-12.43,11.58-12.43h20.45c4.24,0,7.73,3.32,7.98,7.55,3.92,67.06,59.72,120.42,127.75,120.42s122.79-52.37,127.63-118.55c.39-5.32,4.86-9.43,10.19-9.43h18.24c6.8,0,12.2,5.77,11.69,12.55-6.44,86.92-79.22,155.67-167.75,155.67Z"/>
        <path d="M992.6,725.15c-89.56,0-163-70.36-167.95-158.71-.29-5.17,3.86-9.51,9.04-9.51h22.19c4.8,0,8.71,3.75,9.03,8.54,4.41,66.6,59.99,119.44,127.69,119.44s123.28-52.84,127.69-119.44c.32-4.79,4.23-8.54,9.03-8.54h22.19c5.18,0,9.33,4.34,9.04,9.51-4.95,88.35-78.39,158.71-167.95,158.71Z"/>
      </g>
    </g>
  </g>
</svg>